<svg xmlns="http://www.w3.org/2000/svg" viewBox="0 0 100 100" x="0px" y="0px">
<path d="M20.5,71A6.5,6.5,0,1,1,27,64.5,6.50753,6.50753,0,0,1,20.5,71Zm0-9A2.5,2.5,0,1,0,23,64.5,2.50232,2.50232,0,0,0,20.5,62Z"/>
<path d="M43.5,48A6.5,6.5,0,1,1,50,41.5,6.50753,6.50753,0,0,1,43.5,48Zm0-9A2.5,2.5,0,1,0,46,41.5,2.50232,2.50232,0,0,0,43.5,39Z"/>
<path d="M70.5,37A6.5,6.5,0,1,1,77,30.5,6.50753,6.50753,0,0,1,70.5,37Zm0-9A2.5,2.5,0,1,0,73,30.5,2.50232,2.50232,0,0,0,70.5,28Z"/>
<path d="M86.5,24A6.5,6.5,0,1,1,93,17.5,6.50753,6.50753,0,0,1,86.5,24Zm0-9A2.5,2.5,0,1,0,89,17.5,2.50232,2.50232,0,0,0,86.5,15Z"/>
<path d="M51.5,34A6.5,6.5,0,1,1,58,27.5,6.50753,6.50753,0,0,1,51.5,34Zm0-9A2.5,2.5,0,1,0,54,27.5,2.50232,2.50232,0,0,0,51.5,25Z"/>
<path d="M70.5,21A6.5,6.5,0,1,1,77,14.5,6.50753,6.50753,0,0,1,70.5,21Zm0-9A2.5,2.5,0,1,0,73,14.5,2.50232,2.50232,0,0,0,70.5,12Z"/>
<path d="M22.5,54A6.5,6.5,0,1,1,29,47.5,6.50753,6.50753,0,0,1,22.5,54Zm0-9A2.5,2.5,0,1,0,25,47.5,2.50232,2.50232,0,0,0,22.5,45Z"/>
<path d="M36.5,62A6.5,6.5,0,1,1,43,55.5,6.50753,6.50753,0,0,1,36.5,62Zm0-9A2.5,2.5,0,1,0,39,55.5,2.50232,2.50232,0,0,0,36.5,53Z"/>
<path d="M66.5,70A6.5,6.5,0,1,1,73,63.5,6.50753,6.50753,0,0,1,66.5,70Zm0-9A2.5,2.5,0,1,0,69,63.5,2.50232,2.50232,0,0,0,66.5,61Z"/>
<path d="M34.5,78A6.5,6.5,0,1,1,41,71.5,6.50753,6.50753,0,0,1,34.5,78Zm0-9A2.5,2.5,0,1,0,37,71.5,2.50232,2.50232,0,0,0,34.5,69Z"/>
<path d="M51.5,61A6.5,6.5,0,1,1,58,54.5,6.50753,6.50753,0,0,1,51.5,61Zm0-9A2.5,2.5,0,1,0,54,54.5,2.50232,2.50232,0,0,0,51.5,52Z"/>
<path d="M59.5,46A6.5,6.5,0,1,1,66,39.5,6.50753,6.50753,0,0,1,59.5,46Zm0-9A2.5,2.5,0,1,0,62,39.5,2.50232,2.50232,0,0,0,59.5,37Z"/>
<path d="M13.5,90A6.5,6.5,0,1,1,20,83.5,6.50753,6.50753,0,0,1,13.5,90Zm0-9A2.5,2.5,0,1,0,16,83.5,2.50232,2.50232,0,0,0,13.5,81Z"/>
</svg>