<?xml version="1.0" encoding="iso-8859-1"?>
<svg version="1.1" id="Capa_1" xmlns="http://www.w3.org/2000/svg" xmlns:xlink="http://www.w3.org/1999/xlink" x="0px" y="0px"
	 viewBox="0 0 480.002 480.002" style="enable-background:new 0 0 480.002 480.002;" xml:space="preserve">
<g fill="white">
	<g>
		<path d="M441.463,240.13c23.12-43.12,27.84-86.272,8.568-119.648c-19.272-33.376-58.728-50.752-107.432-52.384
			c-3.536-5.822-7.365-11.461-11.472-16.896c4.239-5.505,6.55-12.252,6.576-19.2C337.73,14.355,323.447,0.028,305.801,0
			c-8.653-0.014-16.941,3.483-22.97,9.69c-12.568-6.27-26.403-9.584-40.448-9.688c-38.792,0-74.016,25.984-99.88,68.064
			c-49.04,1.472-88.888,18.968-108.2,52.416c-19.312,33.448-14.52,76.512,8.592,119.632c-20,36.904-26.272,73.88-15.488,105.008
			c-12.653,12.281-12.954,32.495-0.673,45.148c10.998,11.33,28.626,12.92,41.473,3.74c22.975,12.598,48.782,19.134,74.984,18.992
			c25.776,41.44,60.72,67,99.2,67s73.248-25.44,99-66.712c11.29-0.287,22.533-1.564,33.6-3.816
			c9.731,14.753,29.579,18.824,44.332,9.093c8.934-5.893,14.331-15.862,14.38-26.565c-0.035-3.263-0.574-6.502-1.6-9.6
			c7.109-6.321,13.168-13.73,17.952-21.952C468.959,327.698,465.839,285.106,441.463,240.13z M436.175,128.482
			c15.416,26.704,12.8,60.904-4.088,96.104c-15.154-23.018-33.354-43.879-54.104-62.016c-5.309-27.253-14.231-53.675-26.528-78.568
			C390.111,87.09,420.831,101.906,436.175,128.482z M382.319,188.626l0.024,0c15.78,15.618,29.565,33.13,41.04,52.136
			c-11.545,18.956-25.377,36.42-41.184,52c2.341-17.489,3.512-35.115,3.504-52.76C385.69,222.821,384.559,205.66,382.319,188.626z
			 M369.703,240.002c0.045,23.548-2.097,47.049-6.4,70.2c-17.859,15.259-37.093,28.832-57.456,40.544h-0.016
			c-20.251,11.696-41.542,21.49-63.6,29.256c-22.107-7.748-43.442-17.543-63.728-29.256c-20.167-11.608-39.229-25.04-56.944-40.128
			c-8.601-46.2-8.693-93.583-0.272-139.816c17.756-15.294,36.912-28.882,57.216-40.584c20.272-11.747,41.587-21.594,63.672-29.416
			c44.356,15.744,85.436,39.513,121.192,70.12C367.592,193.706,369.713,216.83,369.703,240.002z M333.151,83.402
			c10.718,19.7,18.965,40.648,24.552,62.368c-13.95-10.754-28.592-20.578-43.832-29.408c-15.177-8.766-30.918-16.517-47.12-23.2
			C288.393,87.164,310.698,83.885,333.151,83.402z M305.703,16.002c8.837,0,16,7.163,16,16s-7.163,16-16,16s-16-7.163-16-16
			S296.866,16.002,305.703,16.002z M242.383,16.002c11.287,0.102,22.41,2.718,32.56,7.656c-0.784,2.714-1.201,5.52-1.24,8.344
			c-0.057,17.616,14.176,31.942,31.792,32c4.527,0.015,9.005-0.934,13.136-2.784c1.723,2.283,3.405,4.624,5.048,7.024
			c-27.753,1.567-55.166,6.89-81.488,15.824c-26.3-8.935-53.692-14.258-81.424-15.824C182.887,35.658,211.351,16.002,242.383,16.002
			z M151.447,83.434h0.016c22.38,0.502,44.611,3.777,66.184,9.752c-16.197,6.683-31.933,14.433-47.104,23.2
			c-15.124,8.728-29.661,18.434-43.52,29.056C132.586,123.848,140.789,103.021,151.447,83.434z M48.199,128.482
			c15.432-26.736,46.44-41.552,85.424-44.52c-12.37,24.683-21.362,50.919-26.736,78c-20.973,18.253-39.37,39.269-54.688,62.472
			C35.407,189.29,32.799,155.146,48.199,128.482z M102.663,293.138v0.032c-15.95-15.638-29.906-33.187-41.552-52.248
			c11.574-19.157,25.459-36.817,41.344-52.584C97.877,223.126,97.947,258.368,102.663,293.138z M49.703,384.002
			c-8.837,0-16-7.163-16-16s7.163-16,16-16s16,7.163,16,16S58.539,384.002,49.703,384.002z M78.615,381.498
			c2.011-4.216,3.066-8.825,3.088-13.496c0-17.673-14.327-32-32-32c-2.741,0.036-5.465,0.429-8.104,1.168
			c-7.152-23.712-2.696-51.768,11.08-80.512c15.245,23.151,33.544,44.14,54.4,62.4c5.449,27.007,14.512,53.157,26.944,77.744
			C114.661,395.787,95.753,390.564,78.615,381.498z M127.303,335.706c13.751,10.568,28.182,20.221,43.2,28.896
			c15.098,8.691,30.741,16.398,46.832,23.072c-21.366,5.862-43.37,9.086-65.52,9.6C141.146,377.836,132.913,357.158,127.303,335.706
			z M242.383,464.002c-30.76,0-59.008-19.296-81.04-51.36c27.406-1.694,54.468-7.007,80.48-15.8
			c26.252,9.073,53.624,14.504,81.352,16.144C301.183,444.85,273.031,464.002,242.383,464.002z M332.903,397.306
			c-22.336-0.512-44.524-3.771-66.064-9.704c16.158-6.614,31.856-14.298,46.992-23c15.207-8.779,29.812-18.561,43.72-29.28
			C351.929,356.923,343.65,377.743,332.903,397.306z M401.703,408.002c-8.837,0-16-7.163-16-16s7.163-16,16-16s16,7.163,16,16
			S410.539,408.002,401.703,408.002z M436.175,352.482c-3.52,5.929-7.856,11.334-12.88,16.056
			c-12.892-11.991-33.064-11.261-45.056,1.631c-5.515,5.929-8.567,13.735-8.536,21.833c0,0.752,0.168,1.456,0.224,2.192
			c-6.323,1.201-12.709,2.037-19.128,2.504c12.471-24.703,21.545-50.978,26.976-78.112c20.726-18.203,38.911-39.11,54.064-62.16
			C449.391,292.994,451.039,326.73,436.175,352.482z"/>
	</g>
</g>
<g fill="white">
	<g>
		<path d="M241.703,160.002c-44.183,0-80,35.817-80,80c0,44.183,35.817,80,80,80s80-35.817,80-80
			C321.654,195.839,285.865,160.05,241.703,160.002z M241.703,304.002c-35.346,0-64-28.654-64-64c0-35.346,28.654-64,64-64
			c35.346,0,64,28.654,64,64C305.663,275.332,277.033,303.962,241.703,304.002z"/>
	</g>
</g>
</svg>
