<?xml version="1.0" encoding="utf-8"?>
<!-- Generator: Adobe Illustrator 21.1.0, SVG Export Plug-In . SVG Version: 6.00 Build 0)  -->
<svg version="1.1" id="Layer_1" xmlns="http://www.w3.org/2000/svg" xmlns:xlink="http://www.w3.org/1999/xlink" x="0px" y="0px"
	 viewBox="0 0 512 512" style="enable-background:new 0 0 512 512;" xml:space="preserve">
<style type="text/css">
	.st0{fill:#FFFFFF;}
</style>
<path class="st0" d="M480,120H32c-13.3,0-24,10.7-24,24v224c0,13.3,10.7,24,24,24h448c13.3,0,24-10.7,24-24V144
	C504,130.7,493.3,120,480,120z M24,144c0-4.4,3.6-8,8-8h448c4.4,0,8,3.6,8,8v80H360v-40c0-4.4-3.6-8-8-8H160c-4.4,0-8,3.6-8,8v40H24
	V144z M344,224H168v-32h176V224z M72,376V264h16v56c0,4.4,3.6,8,8,8h8v48H72z M104,312v-48h16v48H104z M120,376v-48h8
	c4.4,0,8-3.6,8-8v-56h16v56c0,4.4,3.6,8,8,8h8v48H120z M168,312v-48h16v48H168z M184,376v-48h8c4.4,0,8-3.6,8-8v-56h16v112H184z
	 M232,376V264h16v56c0,4.4,3.6,8,8,8h8v48H232z M264,312v-48h16v48H264z M280,376v-48h8c4.4,0,8-3.6,8-8v-56h16v56c0,4.4,3.6,8,8,8
	h8v48H280z M328,312v-48h16v48H328z M344,376v-48h8c4.4,0,8-3.6,8-8v-56h16v56c0,4.4,3.6,8,8,8h8v48H344z M392,312v-48h16v48H392z
	 M408,376v-48h8c4.4,0,8-3.6,8-8v-56h16v112H408z M488,368c0,4.4-3.6,8-8,8h-24V256c0-4.4-3.6-8-8-8H64c-4.4,0-8,3.6-8,8v120H32
	c-4.4,0-8-3.6-8-8V240h464V368z"/>
<path class="st0" d="M456,200c13.3,0,24-10.7,24-24s-10.7-24-24-24s-24,10.7-24,24S442.7,200,456,200z M456,168c4.4,0,8,3.6,8,8
	s-3.6,8-8,8s-8-3.6-8-8S451.6,168,456,168z"/>
<path class="st0" d="M392,200c13.3,0,24-10.7,24-24s-10.7-24-24-24s-24,10.7-24,24S378.7,200,392,200z M392,168c4.4,0,8,3.6,8,8
	s-3.6,8-8,8s-8-3.6-8-8S387.6,168,392,168z"/>
<path class="st0" d="M96,144H40c-4.4,0-8,3.6-8,8s3.6,8,8,8h56c4.4,0,8-3.6,8-8S100.4,144,96,144z"/>
<path class="st0" d="M56,168H40c-4.4,0-8,3.6-8,8s3.6,8,8,8h16c4.4,0,8-3.6,8-8S60.4,168,56,168z"/>
<path class="st0" d="M472,352c4.4,0,8-3.6,8-8v-80c0-4.4-3.6-8-8-8s-8,3.6-8,8v80C464,348.4,467.6,352,472,352z"/>
<path class="st0" d="M40,280c-4.4,0-8,3.6-8,8v32c0,4.4,3.6,8,8,8s8-3.6,8-8v-32C48,283.6,44.4,280,40,280z"/>
<path class="st0" d="M208,168h96c4.4,0,8-3.6,8-8s-3.6-8-8-8h-96c-4.4,0-8,3.6-8,8S203.6,168,208,168z"/>
</svg>
