<?xml version="1.0" encoding="utf-8"?>
<!-- Generator: Adobe Illustrator 21.1.0, SVG Export Plug-In . SVG Version: 6.00 Build 0)  -->
<svg version="1.1" id="Layer_1" xmlns="http://www.w3.org/2000/svg" xmlns:xlink="http://www.w3.org/1999/xlink" x="0px" y="0px"
	 viewBox="0 0 512.1 512.1" style="enable-background:new 0 0 512.1 512.1;" xml:space="preserve">
<style type="text/css">
	.st0{fill:#FFFFFF;}
</style>
<path class="st0" d="M503.6,315.7H367V153.6c0-4.7-3.8-8.5-8.5-8.5H196.4V8.5c0-4.7-3.8-8.5-8.5-8.5c-4.7,0-8.5,3.8-8.5,8.5v141.5
	L105,224.4c-1.6,1.6-2.5,3.8-2.5,6v167.1L2.6,497.4c-2.2,2.1-3.1,5.3-2.3,8.3c0.8,3,3.1,5.3,6.1,6.1c3,0.8,6.2-0.1,8.3-2.3
	l99.9-99.9h167.1c2.3,0,4.4-0.9,6-2.5l74.3-74.3h141.5c4.7,0,8.5-3.8,8.5-8.5C512.1,319.6,508.3,315.7,503.6,315.7z M191.4,162.1
	h146.5l-59.7,59.7H131.6L191.4,162.1z M290.2,233.9l59.7-59.7v146.5l-59.7,59.7V233.9z M119.6,238.9h153.6v153.6H222v-17.1
	c0-4.7-3.8-8.5-8.5-8.5c-4.7,0-8.5,3.8-8.5,8.5v17.1h-17.1v-42.7c0-4.7-3.8-8.5-8.5-8.5c-4.7,0-8.5,3.8-8.5,8.5v42.7h-17.1v-76.8
	c0-4.7-3.8-8.5-8.5-8.5c-4.7,0-8.5,3.8-8.5,8.5v76.8h-17.1V238.9z"/>
<path class="st0" d="M247.6,68.3c4.7,0,8.5-3.8,8.5-8.5V45.2l15.6-23.4c2.6-3.9,1.5-9.2-2.4-11.8s-9.2-1.6-11.8,2.3l-10,15l-10-15
	c-1.7-2.6-4.6-4-7.7-3.8s-5.8,2-7.1,4.8s-1.1,6,0.6,8.6L239,45.2v14.5C239,64.4,242.9,68.3,247.6,68.3z"/>
<path class="st0" d="M128.1,512c4.7,0,8.5-3.8,8.5-8.5c0-4.7-3.8-8.5-8.5-8.5h-16.4l23-28.8c2.1-2.6,2.4-6.1,1-9s-4.4-4.8-7.7-4.8
	H94c-4.7,0-8.5,3.8-8.5,8.5c0,4.7,3.8,8.5,8.5,8.5h16.4l-23,28.8c-2,2.6-2.4,6.1-1,9s4.4,4.8,7.7,4.8H128.1z"/>
<path class="st0" d="M500.4,351.7c-3.7-2.9-9.1-2.3-12,1.3l-10.4,13l-10.4-13c-2.9-3.7-8.3-4.3-12-1.3c-3.7,2.9-4.3,8.3-1.3,12
	l12.8,16l-12.8,16c-2.9,3.7-2.3,9.1,1.3,12c3.7,2.9,9.1,2.3,12-1.3l10.4-13l10.4,13c2.9,3.7,8.3,4.3,12,1.3c3.7-2.9,4.3-8.3,1.3-12
	l-12.8-16l12.8-16C504.6,360.1,504.1,354.7,500.4,351.7z"/>
</svg>
