<?xml version="1.0" encoding="utf-8"?>
<!-- Generator: Adobe Illustrator 21.1.0, SVG Export Plug-In . SVG Version: 6.00 Build 0)  -->
<svg version="1.1" id="Layer_1" xmlns="http://www.w3.org/2000/svg" xmlns:xlink="http://www.w3.org/1999/xlink" x="0px" y="0px"
	 viewBox="0 0 100 100" style="enable-background:new 0 0 100 100;" xml:space="preserve">
<style type="text/css">
	.st0{fill:#FFFFFF;}
</style>
<path class="st0" d="M20.5,71c-3.6,0-6.5-2.9-6.5-6.5s2.9-6.5,6.5-6.5s6.5,2.9,6.5,6.5C27,68.1,24.1,71,20.5,71z M20.5,62
	c-1.4,0-2.5,1.1-2.5,2.5c0,1.4,1.1,2.5,2.5,2.5s2.5-1.1,2.5-2.5C23,63.1,21.9,62,20.5,62z"/>
<path class="st0" d="M43.5,48c-3.6,0-6.5-2.9-6.5-6.5s2.9-6.5,6.5-6.5s6.5,2.9,6.5,6.5C50,45.1,47.1,48,43.5,48z M43.5,39
	c-1.4,0-2.5,1.1-2.5,2.5s1.1,2.5,2.5,2.5s2.5-1.1,2.5-2.5C46,40.1,44.9,39,43.5,39z"/>
<path class="st0" d="M70.5,37c-3.6,0-6.5-2.9-6.5-6.5s2.9-6.5,6.5-6.5s6.5,2.9,6.5,6.5C77,34.1,74.1,37,70.5,37z M70.5,28
	c-1.4,0-2.5,1.1-2.5,2.5s1.1,2.5,2.5,2.5s2.5-1.1,2.5-2.5C73,29.1,71.9,28,70.5,28z"/>
<path class="st0" d="M86.5,24c-3.6,0-6.5-2.9-6.5-6.5s2.9-6.5,6.5-6.5s6.5,2.9,6.5,6.5C93,21.1,90.1,24,86.5,24z M86.5,15
	c-1.4,0-2.5,1.1-2.5,2.5s1.1,2.5,2.5,2.5s2.5-1.1,2.5-2.5C89,16.1,87.9,15,86.5,15z"/>
<path class="st0" d="M51.5,34c-3.6,0-6.5-2.9-6.5-6.5s2.9-6.5,6.5-6.5s6.5,2.9,6.5,6.5C58,31.1,55.1,34,51.5,34z M51.5,25
	c-1.4,0-2.5,1.1-2.5,2.5s1.1,2.5,2.5,2.5s2.5-1.1,2.5-2.5C54,26.1,52.9,25,51.5,25z"/>
<path class="st0" d="M70.5,21c-3.6,0-6.5-2.9-6.5-6.5S66.9,8,70.5,8s6.5,2.9,6.5,6.5C77,18.1,74.1,21,70.5,21z M70.5,12
	c-1.4,0-2.5,1.1-2.5,2.5s1.1,2.5,2.5,2.5s2.5-1.1,2.5-2.5C73,13.1,71.9,12,70.5,12z"/>
<path class="st0" d="M22.5,54c-3.6,0-6.5-2.9-6.5-6.5s2.9-6.5,6.5-6.5s6.5,2.9,6.5,6.5C29,51.1,26.1,54,22.5,54z M22.5,45
	c-1.4,0-2.5,1.1-2.5,2.5s1.1,2.5,2.5,2.5s2.5-1.1,2.5-2.5C25,46.1,23.9,45,22.5,45z"/>
<path class="st0" d="M36.5,62c-3.6,0-6.5-2.9-6.5-6.5s2.9-6.5,6.5-6.5s6.5,2.9,6.5,6.5C43,59.1,40.1,62,36.5,62z M36.5,53
	c-1.4,0-2.5,1.1-2.5,2.5s1.1,2.5,2.5,2.5s2.5-1.1,2.5-2.5C39,54.1,37.9,53,36.5,53z"/>
<path class="st0" d="M66.5,70c-3.6,0-6.5-2.9-6.5-6.5s2.9-6.5,6.5-6.5s6.5,2.9,6.5,6.5C73,67.1,70.1,70,66.5,70z M66.5,61
	c-1.4,0-2.5,1.1-2.5,2.5c0,1.4,1.1,2.5,2.5,2.5s2.5-1.1,2.5-2.5C69,62.1,67.9,61,66.5,61z"/>
<path class="st0" d="M34.5,78c-3.6,0-6.5-2.9-6.5-6.5s2.9-6.5,6.5-6.5s6.5,2.9,6.5,6.5C41,75.1,38.1,78,34.5,78z M34.5,69
	c-1.4,0-2.5,1.1-2.5,2.5s1.1,2.5,2.5,2.5s2.5-1.1,2.5-2.5C37,70.1,35.9,69,34.5,69z"/>
<path class="st0" d="M51.5,61c-3.6,0-6.5-2.9-6.5-6.5s2.9-6.5,6.5-6.5s6.5,2.9,6.5,6.5C58,58.1,55.1,61,51.5,61z M51.5,52
	c-1.4,0-2.5,1.1-2.5,2.5s1.1,2.5,2.5,2.5s2.5-1.1,2.5-2.5C54,53.1,52.9,52,51.5,52z"/>
<path class="st0" d="M59.5,46c-3.6,0-6.5-2.9-6.5-6.5s2.9-6.5,6.5-6.5s6.5,2.9,6.5,6.5C66,43.1,63.1,46,59.5,46z M59.5,37
	c-1.4,0-2.5,1.1-2.5,2.5s1.1,2.5,2.5,2.5s2.5-1.1,2.5-2.5C62,38.1,60.9,37,59.5,37z"/>
<path class="st0" d="M13.5,90C9.9,90,7,87.1,7,83.5S9.9,77,13.5,77s6.5,2.9,6.5,6.5C20,87.1,17.1,90,13.5,90z M13.5,81
	c-1.4,0-2.5,1.1-2.5,2.5s1.1,2.5,2.5,2.5s2.5-1.1,2.5-2.5C16,82.1,14.9,81,13.5,81z"/>
</svg>
