<?xml version="1.0" ?>
<svg id="Outlined" viewBox="0 0 32 32" xmlns="http://www.w3.org/2000/svg">
    <g id="Fill" fill="white">
        <path d="M16,2A14,14,0,1,0,30,16,14,14,0,0,0,16,2Zm8,13a24.28,24.28,0,0,0-.41-3.62c2.19.91,3.75,2.19,4.25,3.62Zm-2,0H17V10a20.9,20.9,0,0,1,4.34.63A20.26,20.26,0,0,1,22,15ZM17,8V4.19c1.43.5,2.71,2.06,3.62,4.25A24.28,24.28,0,0,0,17,8ZM15,4.19V8a24.28,24.28,0,0,0-3.62.41C12.29,6.25,13.57,4.69,15,4.19ZM15,10v5H10a20.26,20.26,0,0,1,.63-4.34A20.9,20.9,0,0,1,15,10ZM8,15H4.19c.5-1.43,2.06-2.71,4.25-3.62A24.28,24.28,0,0,0,8,15Zm0,2a24.28,24.28,0,0,0,.41,3.62C6.25,19.71,4.69,18.43,4.19,17Zm2,0h5v5a20.9,20.9,0,0,1-4.34-.63A20.26,20.26,0,0,1,10,17Zm5,7v3.84c-1.43-.5-2.71-2.06-3.62-4.25A24.28,24.28,0,0,0,15,24Zm2,3.84V24a24.28,24.28,0,0,0,3.62-.41C19.71,25.75,18.43,27.31,17,27.81ZM17,22V17h5a20.26,20.26,0,0,1-.63,4.34A20.9,20.9,0,0,1,17,22Zm7-5h3.84c-.5,1.43-2.06,2.71-4.25,3.62A24.28,24.28,0,0,0,24,17Zm2.87-6.12A15.11,15.11,0,0,0,23,9a15.11,15.11,0,0,0-1.85-3.87A12.12,12.12,0,0,1,26.84,10.88Zm-16-5.72A15.11,15.11,0,0,0,9,9a15.11,15.11,0,0,0-3.87,1.85A12.12,12.12,0,0,1,10.88,5.16Zm-5.72,16A15.11,15.11,0,0,0,9,23a15.11,15.11,0,0,0,1.85,3.87A12.12,12.12,0,0,1,5.16,21.12Zm16,5.72A15.11,15.11,0,0,0,23,23a15.11,15.11,0,0,0,3.87-1.85A12.12,12.12,0,0,1,21.12,26.84Z"/>
    </g>
</svg>