<?xml version="1.0" encoding="utf-8"?>
<!-- Generator: Adobe Illustrator 21.1.0, SVG Export Plug-In . SVG Version: 6.00 Build 0)  -->
<svg version="1.1" id="Capa_1" xmlns="http://www.w3.org/2000/svg" xmlns:xlink="http://www.w3.org/1999/xlink" x="0px" y="0px"
	 viewBox="0 0 51.2 51.2" style="enable-background:new 0 0 51.2 51.2;" xml:space="preserve">
<style type="text/css">
	.st0{fill:#FFFFFF;}
</style>
<g>
	<path class="st0" d="M34.5,18.5H6.1C2.8,18.5,0,21.4,0,25v12.6C0,41.2,2.8,44,6.1,44h28.4c3.4,0,6.1-2.9,6.1-6.4V25
		C40.7,21.4,37.9,18.5,34.5,18.5z M38.6,37.6c0,2.4-1.8,4.3-4,4.3H6.1c-2,0-3.7-1.6-4-3.7c1.4-1.2,5.7-4.4,9.6-3
		c3.6,1.3,6.4-0.7,8.8-2.4c1.8-1.2,3.5-2.4,5.4-2.5c5-0.3,12.4,0,12.5,0l0-1C38.6,29.3,38.6,37.6,38.6,37.6z M38.6,28.3
		c-0.6,0-7.7-0.3-12.7,0c-2.5,0.2-4.5,1.5-6.4,2.9c-2.4,1.7-4.4,3.1-7,2.2c-4-1.4-8.1,0.8-10.3,2.4V25c0-2.4,1.8-4.3,4-4.3h28.4
		c2.2,0,4,1.9,4,4.3V28.3z M46,19v19.7c0,0.6-0.4,1-1,1s-1-0.4-1-1V19c0-2.2-1.8-4-4-4H8.7c-0.6,0-1-0.4-1-1s0.4-1,1-1H40
		C43.3,13,46,15.6,46,19z M51.2,13.1v19.7c0,0.6-0.4,1-1,1s-1-0.4-1-1V13.1c0-2.2-1.8-4-4-4H13.8c-0.6,0-1-0.4-1-1s0.4-1,1-1h31.3
		C48.5,7.1,51.2,9.8,51.2,13.1z M8.7,22.4c-2.2,0-3.9,1.8-3.9,3.9s1.8,3.9,3.9,3.9s3.9-1.8,3.9-3.9S10.8,22.4,8.7,22.4z M8.7,28.2
		c-1.1,0-1.9-0.9-1.9-1.9s0.9-1.9,1.9-1.9s1.9,0.9,1.9,1.9S9.7,28.2,8.7,28.2z"/>
</g>
</svg>
