<svg height="512pt" viewBox="0 0 512 512" width="512pt" fill="yellow" xmlns="http://www.w3.org/2000/svg"><path d="m512 437v30c0 24.800781-20.199219 45-45 45h-30c-8.300781 0-15-6.699219-15-15s6.699219-15 15-15h30c8.300781 0 15-6.699219 15-15v-30c0-8.300781 6.699219-15 15-15s15 6.699219 15 15zm0 0"/><path d="m512 339v30c0 8.300781-6.699219 15-15 15s-15-6.699219-15-15v-30c0-8.300781 6.699219-15 15-15s15 6.699219 15 15zm0 0"/><path d="m512 45v196c0 24.800781-20.199219 45-45 45h-196c-24.800781 0-45-20.199219-45-45v-196c0-24.800781 20.199219-45 45-45h196c24.800781 0 45 20.199219 45 45zm-30 196v-196c0-8.300781-6.699219-15-15-15h-196c-8.300781 0-15 6.699219-15 15v196c0 8.300781 6.699219 15 15 15h196c8.300781 0 15-6.699219 15-15zm0 0"/><path d="m369 482c8.300781 0 15 6.699219 15 15s-6.699219 15-15 15h-30c-8.300781 0-15-6.699219-15-15s6.699219-15 15-15zm0 0"/><path d="m271 482c8.300781 0 15 6.699219 15 15s-6.699219 15-15 15h-30c-8.300781 0-15-6.699219-15-15s6.699219-15 15-15zm0 0"/><path d="m215.601562 296.398438c5.898438 5.902343 5.898438 15.402343 0 21.203124l-74.402343 74.398438 34.402343 34.398438c4.296876 4.300781 5.597657 10.703124 3.296876 16.300781-2.296876 5.601562-7.796876 9.300781-13.898438 9.300781h-90c-8.300781 0-15-6.699219-15-15v-90c0-6.101562 3.699219-11.5 9.300781-13.898438 5.597657-2.300781 12.097657-1 16.300781 3.296876l34.398438 34.402343 74.398438-74.402343c5.902343-5.898438 15.402343-5.898438 21.203124 0zm0 0"/><path d="m173 0c8.300781 0 15 6.699219 15 15s-6.699219 15-15 15h-30c-8.300781 0-15-6.699219-15-15s6.699219-15 15-15zm0 0"/><path d="m173 482c8.300781 0 15 6.699219 15 15s-6.699219 15-15 15h-30c-8.300781 0-15-6.699219-15-15s6.699219-15 15-15zm0 0"/><path d="m75 0c8.300781 0 15 6.699219 15 15s-6.699219 15-15 15h-30c-8.300781 0-15 6.699219-15 15v30c0 8.300781-6.699219 15-15 15s-15-6.699219-15-15v-30c0-24.800781 20.199219-45 45-45zm0 0"/><path d="m75 482c8.300781 0 15 6.699219 15 15s-6.699219 15-15 15h-30c-24.800781 0-45-20.199219-45-45v-30c0-8.300781 6.699219-15 15-15s15 6.699219 15 15v30c0 8.300781 6.699219 15 15 15zm0 0"/><path d="m30 339v30c0 8.300781-6.699219 15-15 15s-15-6.699219-15-15v-30c0-8.300781 6.699219-15 15-15s15 6.699219 15 15zm0 0"/><path d="m30 241v30c0 8.300781-6.699219 15-15 15s-15-6.699219-15-15v-30c0-8.300781 6.699219-15 15-15s15 6.699219 15 15zm0 0"/><path d="m30 143v30c0 8.300781-6.699219 15-15 15s-15-6.699219-15-15v-30c0-8.300781 6.699219-15 15-15s15 6.699219 15 15zm0 0"/></svg>